<svg width="18" height="26" viewBox="0 0 18 26" fill="none" xmlns="http://www.w3.org/2000/svg">
<path d="M3.22 26C2.428 26 1.816 25.796 1.384 25.388C0.976 24.956 0.772 24.344 0.772 23.552V3.068C0.772 2.276 0.976 1.676 1.384 1.268C1.816 0.835999 2.428 0.619998 3.22 0.619998H16.072C16.672 0.619998 17.128 0.775999 17.44 1.088C17.776 1.4 17.944 1.844 17.944 2.42C17.944 3.02 17.776 3.488 17.44 3.824C17.128 4.136 16.672 4.292 16.072 4.292H5.2V11.276H15.28C15.904 11.276 16.372 11.432 16.684 11.744C16.996 12.056 17.152 12.512 17.152 13.112C17.152 13.712 16.996 14.168 16.684 14.48C16.372 14.792 15.904 14.948 15.28 14.948H5.2V22.328H16.072C16.672 22.328 17.128 22.484 17.44 22.796C17.776 23.108 17.944 23.564 17.944 24.164C17.944 24.764 17.776 25.22 17.44 25.532C17.128 25.844 16.672 26 16.072 26H3.22Z" fill="white"/>
</svg>
