<svg width="27" height="27" viewBox="0 0 27 27" fill="none" xmlns="http://www.w3.org/2000/svg">
<path d="M2.932 26.288C2.26 26.288 1.744 26.096 1.384 25.712C1.024 25.328 0.844 24.8 0.844 24.128V2.492C0.844 1.796 1.036 1.268 1.42 0.907999C1.804 0.523998 2.332 0.331998 3.004 0.331998C3.604 0.331998 4.072 0.451998 4.408 0.692C4.768 0.908 5.092 1.292 5.38 1.844L14.272 18.296H13.12L22.012 1.844C22.3 1.292 22.612 0.908 22.948 0.692C23.284 0.451998 23.752 0.331998 24.352 0.331998C25.024 0.331998 25.54 0.523998 25.9 0.907999C26.26 1.268 26.44 1.796 26.44 2.492V24.128C26.44 24.8 26.26 25.328 25.9 25.712C25.564 26.096 25.048 26.288 24.352 26.288C23.68 26.288 23.164 26.096 22.804 25.712C22.444 25.328 22.264 24.8 22.264 24.128V7.46H23.056L15.496 21.248C15.256 21.656 15.004 21.956 14.74 22.148C14.476 22.34 14.116 22.436 13.66 22.436C13.204 22.436 12.832 22.34 12.544 22.148C12.256 21.932 12.004 21.632 11.788 21.248L4.156 7.424H5.02V24.128C5.02 24.8 4.84 25.328 4.48 25.712C4.144 26.096 3.628 26.288 2.932 26.288Z" fill="#47A248"/>
</svg>
