<svg width="23" height="27" viewBox="0 0 23 27" fill="none" xmlns="http://www.w3.org/2000/svg">
<path d="M2.932 26.288C2.236 26.288 1.696 26.096 1.312 25.712C0.952 25.328 0.772 24.776 0.772 24.056V2.636C0.772 1.892 0.952 1.328 1.312 0.943999C1.696 0.535998 2.188 0.331998 2.788 0.331998C3.34 0.331998 3.748 0.439998 4.012 0.655998C4.3 0.847998 4.636 1.184 5.02 1.664L18.808 19.556H17.872V2.528C17.872 1.832 18.052 1.292 18.412 0.907999C18.796 0.523998 19.336 0.331998 20.032 0.331998C20.728 0.331998 21.256 0.523998 21.616 0.907999C21.976 1.292 22.156 1.832 22.156 2.528V24.128C22.156 24.8 21.988 25.328 21.652 25.712C21.316 26.096 20.86 26.288 20.284 26.288C19.732 26.288 19.288 26.18 18.952 25.964C18.64 25.748 18.292 25.4 17.908 24.92L4.156 7.028H5.056V24.056C5.056 24.776 4.876 25.328 4.516 25.712C4.156 26.096 3.628 26.288 2.932 26.288Z" fill="#8CC84B"/>
</svg>
