<svg width="21" height="27" viewBox="0 0 21 27" fill="none" xmlns="http://www.w3.org/2000/svg">
<path d="M3.076 26.288C2.332 26.288 1.756 26.084 1.348 25.676C0.964 25.244 0.772 24.656 0.772 23.912V2.96C0.772 2.192 0.976 1.616 1.384 1.232C1.792 0.823999 2.368 0.619998 3.112 0.619998H11.788C14.572 0.619998 16.72 1.292 18.232 2.636C19.744 3.956 20.5 5.816 20.5 8.216C20.5 9.776 20.152 11.12 19.456 12.248C18.784 13.376 17.8 14.24 16.504 14.84C15.208 15.44 13.636 15.74 11.788 15.74L12.112 15.2H13.3C14.284 15.2 15.136 15.44 15.856 15.92C16.6 16.4 17.248 17.156 17.8 18.188L20.5 23.192C20.788 23.696 20.92 24.188 20.896 24.668C20.872 25.148 20.692 25.544 20.356 25.856C20.02 26.144 19.528 26.288 18.88 26.288C18.232 26.288 17.704 26.156 17.296 25.892C16.888 25.604 16.528 25.172 16.216 24.596L12.58 17.9C12.148 17.084 11.632 16.544 11.032 16.28C10.456 15.992 9.712 15.848 8.8 15.848H5.38V23.912C5.38 24.656 5.188 25.244 4.804 25.676C4.42 26.084 3.844 26.288 3.076 26.288ZM5.38 12.428H10.996C12.652 12.428 13.9 12.092 14.74 11.42C15.604 10.724 16.036 9.692 16.036 8.324C16.036 6.98 15.604 5.972 14.74 5.3C13.9 4.604 12.652 4.256 10.996 4.256H5.38V12.428Z" fill="#61DAFB"/>
</svg>
